<?xml version="1.0" encoding="utf-8"?>
<!-- Generator: Adobe Illustrator 21.1.0, SVG Export Plug-In . SVG Version: 6.00 Build 0)  -->
<svg version="1.1" id="Capa_1" xmlns="http://www.w3.org/2000/svg" xmlns:xlink="http://www.w3.org/1999/xlink" x="0px" y="0px"
	 viewBox="0 0 43 44" style="enable-background:new 0 0 43 44;" xml:space="preserve">
<style type="text/css">
	.st0{fill:#D3D7DB;}
</style>
<g id="KMPqlk_2_">
	<g>
		<path class="st0" d="M21.5,0.7c0.2,0.4,0.3,0.8,0.5,1.2c0.4,1.1,0.9,2.2,1.3,3.2c0.4,0.9,1,1.7,1.8,2.4C26,8.3,27,8.8,28.2,9.1
			c1.5,0.3,2.9,0.2,4.3-0.4c1.3-0.6,2.7-1.1,4-1.7c0,0,0.1-0.1,0.1,0c0,0,0,0.1,0,0.1c-0.6,1.4-1.2,2.8-1.8,4.3
			c-0.3,0.6-0.4,1.3-0.4,2c-0.1,1.8,0.4,3.4,1.5,4.8c0.8,1,1.8,1.8,3.1,2.3c1.3,0.5,2.6,1,3.9,1.6c0,0,0.1,0,0.1,0.1
			c0,0.1-0.1,0.1-0.1,0.1c-0.8,0.3-1.7,0.7-2.5,1c-0.7,0.3-1.4,0.5-2.1,0.9c-1.3,0.7-2.2,1.6-2.9,2.8c-0.5,0.8-0.7,1.7-0.8,2.7
			c-0.1,1.2,0.1,2.4,0.5,3.5c0.6,1.3,1.1,2.7,1.7,4c0,0,0,0.1,0,0.1c0,0-0.1,0-0.1,0c-1.3-0.6-2.7-1.1-4-1.7
			c-0.7-0.3-1.5-0.5-2.3-0.5c-1.3-0.1-2.5,0.2-3.6,0.7c-1.2,0.6-2.2,1.5-2.9,2.7c-0.4,0.6-0.6,1.3-0.9,2c-0.4,1-0.8,2-1.2,2.9
			c0,0.1,0,0.2-0.1,0.2c-0.1,0-0.1-0.1-0.1-0.2c-0.6-1.4-1.1-2.8-1.7-4.1c-0.8-1.8-2.1-3.1-4-3.8c-0.9-0.3-1.8-0.5-2.8-0.4
			c-0.9,0-1.7,0.3-2.6,0.6c-1.3,0.6-2.6,1.1-3.9,1.7c0,0-0.1,0.1-0.1,0c0,0,0-0.1,0-0.1c0.4-0.9,0.7-1.7,1.1-2.6
			c0.3-0.7,0.6-1.4,0.9-2.1c0.2-0.5,0.3-1.1,0.3-1.7c0.1-1.7-0.4-3.2-1.4-4.6c-0.8-1.1-1.8-1.8-3-2.3c-1.4-0.5-2.7-1.1-4.1-1.6
			c0,0-0.1,0-0.1-0.1c0,0,0,0,0,0c0,0,0.1,0,0.1,0c1.4-0.5,2.7-1.1,4.1-1.6c1.1-0.4,2-1.1,2.7-1.9c1.2-1.4,1.7-3,1.6-4.9
			c0-0.9-0.2-1.7-0.6-2.5C7.6,9.7,7.1,8.4,6.5,7.1c0,0-0.1-0.1,0-0.2c0,0,0.1,0,0.1,0c1.3,0.6,2.6,1.1,3.9,1.7
			c1.2,0.5,2.4,0.7,3.7,0.5c0.9-0.1,1.8-0.4,2.6-0.9c1.4-0.8,2.4-1.9,3-3.3c0.4-1,0.8-2,1.2-3C21.1,1.6,21.3,1.1,21.5,0.7
			C21.5,0.7,21.5,0.7,21.5,0.7z M11.7,22c0,5.4,4.4,9.8,9.8,9.8c5.4,0,9.8-4.4,9.8-9.8c0-5.4-4.4-9.8-9.8-9.8
			C16.1,12.2,11.7,16.6,11.7,22z"/>
	</g>
</g>
</svg>
