<?xml version="1.0" encoding="utf-8"?>
<!-- Generator: Adobe Illustrator 21.1.0, SVG Export Plug-In . SVG Version: 6.00 Build 0)  -->
<svg version="1.1" id="Capa_1" xmlns="http://www.w3.org/2000/svg" xmlns:xlink="http://www.w3.org/1999/xlink" x="0px" y="0px"
	 viewBox="0 0 43 44" style="enable-background:new 0 0 43 44;" xml:space="preserve">
<style type="text/css">
	.st0{fill:#D3D7DB;}
</style>
<g id="vrmpeW_1_">
	<g>
		<path class="st0" d="M27.4,20.1c0.2,0,0.2-0.1,0.3-0.2c1.7-1.2,3.4-2.3,5-3.5c0.4-0.3,0.4-0.3,0.6,0.2c0.6,2.2,2.2,3.5,4.4,3.8
			c1,0.1,2.1,0.3,3.1,0.4c0.4,0.1,0.4,0.1,0.2,0.5c-0.6,0.9-1.2,1.7-1.8,2.6c-1.3,1.9-1.4,3.9-0.2,5.9c0.2,0.3,0.1,0.4-0.2,0.5
			c-3.5,0.7-7,1.4-10.5,2.1c-0.4,0.1-0.5,0.2-0.4,0.6c0.4,1.4,0.8,2.7,1.2,4.1c0,0.1,0.1,0.3,0,0.4c-0.1,0.1-0.3,0-0.4-0.1
			c-1.9-0.8-3.9-1.6-5.8-2.3c-0.5-0.2-0.5-0.2-0.5,0.3c0,1.9,0,3.9,0,5.8c0,0.5,0,0.6-0.5,0.6c-0.3,0-0.7,0-1,0
			c-0.6,0-0.6,0-0.6-0.6c0-1.9,0-3.8,0-5.7c0-0.5,0-0.5-0.5-0.3c-1.9,0.8-3.8,1.5-5.7,2.3c-0.2,0.1-0.3,0.2-0.5,0.1
			c-0.1-0.1,0-0.3,0.1-0.5c0.4-1.3,0.8-2.7,1.2-4c0.1-0.4,0-0.5-0.3-0.5c-3.5-0.7-7-1.4-10.5-2.2c-0.5-0.1-0.5-0.1-0.2-0.5
			c1.2-2,1.1-3.9-0.2-5.8c-0.6-0.9-1.2-1.7-1.8-2.6c-0.3-0.4-0.3-0.4,0.2-0.5c1.2-0.2,2.4-0.3,3.6-0.5c2-0.4,3.2-1.7,3.8-3.6
			c0.2-0.6,0.2-0.6,0.7-0.3c1.6,1.1,3.3,2.3,4.9,3.5c0.1,0.1,0.2,0.2,0.4,0.2c-0.2-0.8-0.3-1.5-0.5-2.3c-0.6-3.1-1.3-6.2-1.9-9.3
			c-0.1-0.3,0-0.4,0.3-0.3c1.8,0.3,3.4-0.1,4.8-1.3c0.5-0.4,0.9-1,1.2-1.6c0.6-0.9,1.1-1.9,1.7-2.8c0.2-0.3,0.3-0.3,0.5,0
			c0.6,1,1.2,1.9,1.7,2.9c0.9,1.5,2.2,2.5,4,2.9c0.6,0.1,1.3,0.1,1.9,0c0.4-0.1,0.5-0.1,0.4,0.4c-0.8,3.7-1.5,7.5-2.3,11.2
			C27.4,19.9,27.3,20,27.4,20.1z"/>
	</g>
</g>
</svg>
